<svg width="64" height="64" viewBox="0 0 64 64" fill="none" xmlns="http://www.w3.org/2000/svg">
  <rect width="64" height="64" rx="14" fill="#F7DF1E"/>
  <path d="M30.4 45.6C29.2 47.5 27.7 48.5 25.4 48.5C22.2 48.5 20.3 46.8 19.2 44.4L22.3 42.7C23 44.1 23.6 45.1 25 45.1C26.1 45.1 26.8 44.6 27.5 43.5L30.4 45.6Z" fill="#111827"/>
  <path d="M33.4 37.5L36.7 35.6C37.6 37.1 38.7 38.1 40.5 38.1C42.1 38.1 43.1 37.3 43.1 36.2C43.1 34.8 42 34.3 40.2 33.6L39.3 33.2C36.3 32.1 34.3 30.6 34.3 27.4C34.3 24.5 36.4 22.3 39.9 22.3C42.3 22.3 44 23.1 45.3 25.4L42.2 27.3C41.5 26.1 40.8 25.7 39.9 25.7C39 25.7 38.4 26.3 38.4 27.3C38.4 28.5 39 29 40.6 29.6L41.5 30C44.9 31.3 46.9 32.8 46.9 36.2C46.9 39.9 44.1 42 40.6 42C37.2 42 34.9 40.4 33.4 37.5Z" fill="#111827"/>
</svg>

