<svg width="64" height="64" viewBox="0 0 64 64" fill="none" xmlns="http://www.w3.org/2000/svg">
  <rect width="64" height="64" rx="14" fill="#1D4ED8"/>
  <path d="M21 23.5H43V28.1H35.2V44H28.8V28.1H21V23.5Z" fill="#EFF6FF"/>
  <path d="M36.8 34.4C37.7 32.9 39.3 31.9 41.5 31.9C45 31.9 47.3 34.3 47.3 37.6C47.3 41 45 43.4 41.6 43.4C39.3 43.4 37.6 42.4 36.7 40.9L40.4 38.9C40.7 39.6 41.1 40 41.7 40C42.5 40 43 39.4 43 38.5C43 37.5 42.4 36.9 41.5 36.9C40.9 36.9 40.4 37.3 40.1 37.9L36.8 34.4Z" fill="#DBEAFE"/>
</svg>

